<svg width="35" height="12" viewBox="0 0 35 12" fill="none" xmlns="http://www.w3.org/2000/svg">
<path d="M7.2 0.75C7.43869 0.75 7.66761 0.829018 7.8364 0.96967C8.00518 1.11032 8.1 1.30109 8.1 1.5V10.5C8.1 10.6989 8.00518 10.8897 7.8364 11.0303C7.66761 11.171 7.43869 11.25 7.2 11.25H1.8C1.56131 11.25 1.33239 11.171 1.1636 11.0303C0.994821 10.8897 0.9 10.6989 0.9 10.5V1.5C0.9 1.30109 0.994821 1.11032 1.1636 0.96967C1.33239 0.829018 1.56131 0.75 1.8 0.75H7.2ZM1.8 0C1.32261 0 0.864773 0.158035 0.527208 0.43934C0.189642 0.720644 0 1.10218 0 1.5V10.5C0 10.8978 0.189642 11.2794 0.527208 11.5607C0.864773 11.842 1.32261 12 1.8 12H7.2C7.67739 12 8.13523 11.842 8.47279 11.5607C8.81036 11.2794 9 10.8978 9 10.5V1.5C9 1.10218 8.81036 0.720644 8.47279 0.43934C8.13523 0.158035 7.67739 0 7.2 0L1.8 0Z" fill="white"/>
<path d="M4.5 10C4.63261 10 4.75979 9.94732 4.85355 9.85355C4.94732 9.75979 5 9.63261 5 9.5C5 9.36739 4.94732 9.24021 4.85355 9.14645C4.75979 9.05268 4.63261 9 4.5 9C4.36739 9 4.24021 9.05268 4.14645 9.14645C4.05268 9.24021 4 9.36739 4 9.5C4 9.63261 4.05268 9.75979 4.14645 9.85355C4.24021 9.94732 4.36739 10 4.5 10Z" fill="white"/>
<path d="M11.3333 6.00002H16.6667M14.3333 3.66669L16.6667 6.00002L14.3333 8.33335" stroke="white" stroke-linecap="round" stroke-linejoin="round"/>
<path d="M20 2C20 1.73478 20.1054 1.48043 20.2929 1.29289C20.4804 1.10536 20.7348 1 21 1L33 1C33.2652 1 33.5196 1.10536 33.7071 1.29289C33.8946 1.48043 34 1.73478 34 2V8C34 8.26522 33.8946 8.51957 33.7071 8.70711C33.5196 8.89464 33.2652 9 33 9L21 9C20.7348 9 20.4804 8.89464 20.2929 8.70711C20.1054 8.51957 20 8.26522 20 8V2ZM19 8C19 8.53043 19.2107 9.03914 19.5858 9.41421C19.9609 9.78929 20.4696 10 21 10L33 10C33.5304 10 34.0391 9.78929 34.4142 9.41421C34.7893 9.03914 35 8.53043 35 8V2C35 1.46957 34.7893 0.96086 34.4142 0.585787C34.0391 0.210714 33.5304 0 33 0L21 0C20.4696 0 19.9609 0.210714 19.5858 0.585787C19.2107 0.96086 19 1.46957 19 2V8Z" fill="white"/>
<rect x="23" y="11" width="8" height="1" rx="0.5" fill="white"/>
</svg>
